<?xml version="1.0" encoding="UTF-8"?>
<svg width="1654" height="325.47" inkscape:version="0.92.3 (2405546, 2018-03-11)" sodipodi:docname="gs.svg" version="1.1" xmlns="http://www.w3.org/2000/svg" xmlns:inkscape="http://www.inkscape.org/namespaces/inkscape" xmlns:sodipodi="http://sodipodi.sourceforge.net/DTD/sodipodi-0.dtd" xmlns:xlink="http://www.w3.org/1999/xlink">
 <defs>
  <linearGradient id="linearGradient3653" x1="154.82" x2="155.53" y1="495.32" y2="513.05" gradientUnits="userSpaceOnUse" inkscape:collect="always">
   <stop stop-color="#fff" offset="0"/>
   <stop stop-opacity=".94737" offset="1"/>
  </linearGradient>
  <filter id="filter3716" x="-.33545" y="-1.1635" width="1.6709" height="3.327" color-interpolation-filters="sRGB" inkscape:collect="always">
   <feGaussianBlur inkscape:collect="always" stdDeviation="8.0768377"/>
  </filter>
  <filter id="filter7669" x="-.0725" y="-.21162" width="1.145" height="1.4232" color-interpolation-filters="sRGB" inkscape:collect="always">
   <feGaussianBlur inkscape:collect="always" stdDeviation="2.5008616"/>
  </filter>
  <linearGradient id="linearGradient7681" x1="45.227" x2="124.44" y1="538.97" y2="559.15" gradientUnits="userSpaceOnUse" inkscape:collect="always">
   <stop stop-color="#fff" offset="0"/>
   <stop stop-color="#fff" offset="1"/>
  </linearGradient>
  <linearGradient id="linearGradient7727" x1="165.78" x2="165.78" y1="530.64" y2="504.18" gradientTransform="translate(.81967)" gradientUnits="userSpaceOnUse" inkscape:collect="always">
   <stop offset="0"/>
   <stop stop-opacity="0" offset="1"/>
  </linearGradient>
  <filter id="filter7729" x="-.5447" y="-.21243" width="2.0894" height="1.4249" color-interpolation-filters="sRGB" inkscape:collect="always">
   <feGaussianBlur inkscape:collect="always" stdDeviation="3.6276283"/>
  </filter>
  <filter id="filter7768" x="-.067694" y="-.16499" width="1.1354" height="1.33" color-interpolation-filters="sRGB" inkscape:collect="always">
   <feGaussianBlur inkscape:collect="always" stdDeviation="3.2367213"/>
  </filter>
  <filter id="filter7768-1" x="-.067694" y="-.16499" width="1.1354" height="1.33" color-interpolation-filters="sRGB" inkscape:collect="always">
   <feGaussianBlur inkscape:collect="always" stdDeviation="3.2367213"/>
  </filter>
  <filter id="filter8010" x="-.64126" y="-.18158" width="2.2825" height="1.3632" color-interpolation-filters="sRGB" inkscape:collect="always">
   <feGaussianBlur inkscape:collect="always" stdDeviation="4.3412634"/>
  </filter>
  <filter id="filter8010-9" x="-.64126" y="-.18158" width="2.2825" height="1.3632" color-interpolation-filters="sRGB" inkscape:collect="always">
   <feGaussianBlur inkscape:collect="always" stdDeviation="4.3412634"/>
  </filter>
  <filter id="filter8110" x="-.19464" y="-.26499" width="1.3893" height="1.53" color-interpolation-filters="sRGB" inkscape:collect="always">
   <feGaussianBlur inkscape:collect="always" stdDeviation="9.910051"/>
  </filter>
  <filter id="filter8118" x="-.17181" y="-.23392" width="1.3436" height="1.4678" color-interpolation-filters="sRGB" inkscape:collect="always">
   <feGaussianBlur inkscape:collect="always" stdDeviation="8.7480268"/>
  </filter>
  <filter id="filter8149" x="-.13884" y="-.23835" width="1.2777" height="1.4767" color-interpolation-filters="sRGB" inkscape:collect="always">
   <feGaussianBlur inkscape:collect="always" stdDeviation="5.701753"/>
  </filter>
  <filter id="filter8173" x="-.31228" y="-.38609" width="1.6246" height="1.7722" color-interpolation-filters="sRGB" inkscape:collect="always">
   <feGaussianBlur inkscape:collect="always" stdDeviation="4.2175917"/>
  </filter>
  <filter id="filter8197" x="-.57795" y="-.25785" width="2.1559" height="1.5157" color-interpolation-filters="sRGB" inkscape:collect="always">
   <feGaussianBlur inkscape:collect="always" stdDeviation="4.9912344"/>
  </filter>
  <filter id="filter8213" x="-.57907" y="-.72859" width="2.1581" height="2.4572" color-interpolation-filters="sRGB" inkscape:collect="always">
   <feGaussianBlur inkscape:collect="always" stdDeviation="7.327109"/>
  </filter>
  <filter id="filter8219" x="-.60103" y="-.65816" width="2.2021" height="2.3163" color-interpolation-filters="sRGB" inkscape:collect="always">
   <feGaussianBlur inkscape:collect="always" stdDeviation="8.0029751"/>
  </filter>
  <filter id="filter8251" x="-.08555" y="-.40913" width="1.1711" height="1.8183" color-interpolation-filters="sRGB" inkscape:collect="always">
   <feGaussianBlur inkscape:collect="always" stdDeviation="2.7105059"/>
  </filter>
  <filter id="filter8275" x="-.31413" y="-.53642" width="1.6283" height="2.0728" color-interpolation-filters="sRGB" inkscape:collect="always">
   <feGaussianBlur inkscape:collect="always" stdDeviation="4.4114508"/>
  </filter>
  <filter id="filter8295" x="-.81796" y="-.087746" width="2.6359" height="1.1755" color-interpolation-filters="sRGB" inkscape:collect="always">
   <feGaussianBlur inkscape:collect="always" stdDeviation="6.4408285"/>
  </filter>
  <filter id="filter8359" x="-.29928" y="-.44109" width="1.5986" height="1.8822" color-interpolation-filters="sRGB" inkscape:collect="always">
   <feGaussianBlur inkscape:collect="always" stdDeviation="3.1626648"/>
  </filter>
  <filter id="filter8419" x="-.1335" y="-.34466" width="1.267" height="1.6893" inkscape:collect="always">
   <feGaussianBlur inkscape:collect="always" stdDeviation="5.2823986"/>
  </filter>
  <filter id="filter8544" x="-.30798" y="-.53366" width="1.616" height="2.0673" inkscape:collect="always">
   <feGaussianBlur inkscape:collect="always" stdDeviation="6.4971368"/>
  </filter>
  <filter id="filter8552" x="-.17017" y="-.95076" width="1.3403" height="2.9015" inkscape:collect="always">
   <feGaussianBlur inkscape:collect="always" stdDeviation="3.8238634"/>
  </filter>
  <filter id="filter8564" x="-.09914" y="-.1484" width="1.1983" height="1.2968" inkscape:collect="always">
   <feGaussianBlur inkscape:collect="always" stdDeviation="7.1837934"/>
  </filter>
  <filter id="filter8586" x="-.46484" y="-.56349" width="1.9297" height="2.127" inkscape:collect="always">
   <feGaussianBlur inkscape:collect="always" stdDeviation="13.642596"/>
  </filter>
  <filter id="filter8590" x="-.16222" y="-.31909" width="1.3244" height="1.6382" inkscape:collect="always">
   <feGaussianBlur inkscape:collect="always" stdDeviation="7.9782798"/>
  </filter>
  <filter id="filter8594" x="-.2308" y="-.25744" width="1.4616" height="1.5149" inkscape:collect="always">
   <feGaussianBlur inkscape:collect="always" stdDeviation="5.3313618"/>
  </filter>
  <filter id="filter8606" x="-.19643" y="-.26721" width="1.3929" height="1.5344" inkscape:collect="always">
   <feGaussianBlur inkscape:collect="always" stdDeviation="6.9154842"/>
  </filter>
  <filter id="filter8682" inkscape:collect="always">
   <feGaussianBlur inkscape:collect="always" stdDeviation="0.80077951"/>
  </filter>
  <filter id="filter8686" inkscape:collect="always">
   <feGaussianBlur inkscape:collect="always" stdDeviation="0.80077951"/>
  </filter>
  <filter id="filter8690" inkscape:collect="always">
   <feGaussianBlur inkscape:collect="always" stdDeviation="0.80077951"/>
  </filter>
  <filter id="filter8694" inkscape:collect="always">
   <feGaussianBlur inkscape:collect="always" stdDeviation="0.80077951"/>
  </filter>
  <filter id="filter8698" inkscape:collect="always">
   <feGaussianBlur inkscape:collect="always" stdDeviation="0.80077951"/>
  </filter>
  <filter id="filter8702" inkscape:collect="always">
   <feGaussianBlur inkscape:collect="always" stdDeviation="0.80077951"/>
  </filter>
  <filter id="filter8724" x="-.20125" y="-.41802" width="1.4025" height="1.836" inkscape:collect="always">
   <feGaussianBlur inkscape:collect="always" stdDeviation="3.0184953"/>
  </filter>
  <filter id="filter7170" x="-.1171" y="-.12305" width="1.2342" height="1.2461" inkscape:collect="always">
   <feGaussianBlur inkscape:collect="always" stdDeviation="1.3443162"/>
  </filter>
 </defs>
 <sodipodi:namedview id="base" bordercolor="#666666" borderopacity="1.0" fit-margin-bottom="8" fit-margin-left="16" fit-margin-right="16" fit-margin-top="8" inkscape:current-layer="layer3" inkscape:cx="441.24332" inkscape:cy="412.17875" inkscape:document-units="px" inkscape:guide-bbox="true" inkscape:pageopacity="0.0" inkscape:pageshadow="2" inkscape:window-height="1017" inkscape:window-maximized="1" inkscape:window-width="1920" inkscape:window-x="-8" inkscape:window-y="-8" inkscape:zoom="0.56245526" pagecolor="#ffffff" showgrid="false" showguides="true">
  <sodipodi:guide inkscape:locked="false" orientation="0,1" position="816.5339,107.61488"/>
  <sodipodi:guide inkscape:locked="false" orientation="0,1" position="834.95602,296.91251"/>
 </sodipodi:namedview>
 <g transform="translate(-36.462 9.4174)" fill="#999" inkscape:groupmode="layer" inkscape:label="Shadow">
  <path transform="matrix(.91521 0 0 .79076 101.72 60.231)" d="m197.17 44.561c0.68663-1.2899-19.599-14.679-47.62-19.477-24.547-4.203-55.226-4.8969-81.376 8.9238-6.5444 3.4589-11.469 6.7816-16.021 10.23-12.4 9.395-18.765 18.62-23.902 25.933-5.4485 7.7553-9.5537 19.408-11.255 24.71-2.074 6.4612-2.4909 12.686-3.4323 19.353-0.61297 4.341-0.49538 9.0363-0.27074 13.937 0.5034 10.983 2.8855 22.954 8.1084 33.935 3.9362 8.2759 9.0767 16.04 14.041 23.088 8.1171 11.525 21.45 18.979 29.249 22.994 6.1191 3.1501 13.711 6.5638 26.642 8.6919 14.667 2.4138 36.306 2.3609 70.953-3.0595 9.5873-1.4999 20.078-4.6497 31.811-7.0669 0.97585-0.20105 1.5806-0.51983 2.3551-0.72125 0.72-0.18726 1.3608-0.0733 1.3354-0.60327-0.73358-15.354-0.46645-32.558-0.15874-40.282 0.0468-1.1751 0.3287-4.8103 0.34184-6.3476 0.0117-1.3715 0.72733-1.207 1.4542-1.8405l7.1721-7.0697-56.148-0.81967-19.672 11.066 39.037-1.6394v43.34s-15.836 6.6001-36.986 6.1476c-15.56-0.33295-34.273-3.9239-52.359-17.521-28.383-21.338-38.337-50.889-38.5-72.226-0.08233-10.747-0.36485-18.971 0.48779-22.447 0.751-3.061 1.9606-10.495 5.2018-18.535 4.3956-10.902 11.833-22.248 25.53-31.577 8.4002-5.7212 19.693-11.028 32.998-12.183 15.31-1.3299 26.129 0.39919 35.173 3.9128 22.301 8.6644 26.768 15.943 29.991 18.474 0.15872 0.12464 0.87662 0.65627 0.61368 1.0368-0.31511 0.45606-0.35409 0.95639-0.50504 1.2292-1.4188 2.5645-5.4365 9.2606-5.4365 9.2606l8.5041-0.92214z" filter="url(#filter8682)" inkscape:connector-curvature="0" sodipodi:nodetypes="csssssssssssssssssccccccsssssssssssccc"/>
  <path transform="matrix(.91521 0 0 .79076 101.72 60.231)" d="m282.12 82.745c-3.1603 0.082-5.0312 0.34375-5.0312 0.34375 2.6391-0.60346-64.266 7.4265-57.781 73.344 5.5949 56.875 68.86 54.408 68.86 54.408 14.829 0.70218 70.83-14.697 61.453-73.658-3.0023-18.879-11.252-31.413-20.75-39.531-16.272-13.908-37.269-15.152-46.75-14.906zm-3.4062 8.9375c12.806 0.0329 34.821 6.1062 41.812 45.094 9.8232 54.782-15.178 59.775-20.906 62.688-7.6084 3.8684-41.879 7.3728-54.094-48.75-12.048-55.359 25.528-58.02 23.375-57.781 0 0 3.9917-1.265 9.8125-1.25z" filter="url(#filter8686)" inkscape:connector-curvature="0" sodipodi:nodetypes="ccscssccssscc"/>
  <path transform="matrix(.91521 0 0 .79076 101.72 60.231)" d="m430.35 81.392c-3.1603 0.082-5.0312 0.34375-5.0312 0.34375 2.6391-0.60346-64.266 7.4265-57.781 73.344 5.5949 56.875 68.86 54.408 68.86 54.408 14.829 0.70218 70.83-14.697 61.453-73.658-3.0023-18.879-11.252-31.413-20.75-39.531-16.272-13.908-37.269-15.152-46.75-14.906zm-3.4062 8.9375c12.806 0.0329 34.821 6.1062 41.813 45.094 9.8232 54.782-15.178 59.775-20.906 62.688-7.6084 3.8684-41.879 7.3728-54.094-48.75-12.048-55.359 25.528-58.02 23.375-57.781 0 0 3.9917-1.265 9.8125-1.25z" filter="url(#filter8690)" inkscape:connector-curvature="0" sodipodi:nodetypes="ccscssccssscc"/>
  <path transform="matrix(.91521 0 0 .79076 101.72 60.231)" d="m572.96 85.87c-2.3905-8.9e-4 -7.9997 0.13398-14.688 1.3438-15.807 2.8594-37.66 13.295-43.844 35.031-9.5633 33.617 15.062 46.969 15.062 46.969s8.6256 5.0683 12.188 6.0625c10.705 2.988 22.094 1.5938 22.094 1.5938s-4.5411 15.035 4.5625 25.656c2.1735 2.5357 0.59375 2.625 0.59375 2.625s-39.788-1.0273-58.625 18.969-8.625 38.406-8.625 38.406 9.87 24.065 52.469 25.281c42.788 1.2218 69.251-24.121 71.562-43.25 1.1618-9.615-0.15199-18.622-4.9688-26.5-4.6848-7.6618-12.735-14.258-20.594-20.688-4.8831-3.9953-8.2797-6.0465-10.469-8.3438-2.0681-2.1703-2.417-4.9654-2.3438-7.0625 0.10223-2.9286 1.6453-6.5201 6.7812-12.469 9.3697-10.852 11.745-9.5013 17.406-17.625 1.6972-2.4354 2.9456-5.9885 4.6875-11.281 1.0494-3.1886 0.87493-6.489 0.875-9.5625 1.6e-4 -6.645-1.5956-12.975-4.25-18.312-4.9329-9.9186-13.4-16.357-13.562-16.844h14.844l16.812-9.8438-56.719-0.15625s-0.45317 3e-4 -1.25 0zm-12.188 9.2188c8.6515 0.0594 21.649 4.5413 29.438 27.906 13.365 40.095-14.625 46.219-14.625 46.219s-32.073 4.939-37.969-30.719c-6.0058-36.324 8.6209-38.288 14.344-41.875 0 0 3.6216-1.5669 8.8125-1.5312zm17.719 118.13s25.536 15.652 27.938 27.125c2.6906 12.854 2.8717 22.216-16.625 32.469-5.7555 3.0266-15.857 3.3791-22.219 3.4062-15.636 0.0667-27.445-5.9518-33.281-8.9688-3.033-1.5679-19.878-20.484-7.4062-37.406 3.1372-4.2566 6.6135-6.1437 9.8438-8.3125 6.8744-4.6156 13.622-6.7656 26.344-7.875 4.2312-0.36901 9.8696-0.0583 15.406-0.4375z" filter="url(#filter8694)" inkscape:connector-curvature="0" sodipodi:nodetypes="csscscscscsssssssssssccccccscscccsssssssc"/>
  <path transform="matrix(.91521 0 0 .79076 101.72 60.231)" d="m628.02 27.005 19.935-9.6592 37.815 0.20552s-10.07 4.9323-10.892 12.536c-0.82206 7.604 0 156.81 0 156.81 0.21047 3.9048-1.5232 8.5288 9.0426 9.5564 13.193 1.2831 15.414 1.5414 15.414 1.5414l-9.2481 6.9875-49.323-0.41103 5.3434-5.7544s2.8772-2.2606 2.6717-11.714c-0.20551-9.4536-0.30827-159.99-0.30827-159.99z" filter="url(#filter8698)" inkscape:connector-curvature="0" sodipodi:nodetypes="cccscsccccscc"/>
  <path transform="matrix(.91521 0 0 .79076 101.72 60.231)" d="m767.92 82.264c-0.94278 0.0042-4.6882-0.20535-5.7083-0.12689-36.02 2.7708-52.646 23.173-58.188 41.813-5.5416 18.64-1.0273 45.847 6.7812 57.938 7.8086 12.091 24.18 27.184 50.125 27.688 25.945 0.50378 39.824-11.855 48.375-20.406 0.56675-0.56675 1-1.75 1-1.75s-16.359 9.2455-33 9.0625c-18.018-0.19817-46.182-17.687-53.125-54.406 6.7694-0.53539 12.437-0.88303 19.875-0.75l63.25-25.938s-1.5323-8.2361-7.9375-16.344c-4.0024-5.0662-10.52-9.9258-17.875-13.187-4.9015-2.1737-7.2254-2.3616-13.573-3.5919zm-15.615 8.8419c0.83872-0.01717 1.6643 0.0062 2.4688 0.03125 4.9858 0.15552 9.108 1.17 12.781 3.5312 2.4604 1.5816 4.445 3.912 7.375 6.4687 5.6648 4.9433 5.5312 11.344 5.5312 11.344-0.10026 1.4457 1.1894 3.3404-2.0625 5.3438-8.2307 5.0704-25.683 11.756-40.25 17.75-4.8253 1.9853-9.9003 3.6715-13.469 5.5 0 0-2.9721-16.998 2-31.031 2.6573-7.5 8.3786-13.99 16.25-16.969 4.0471-1.5313 6.8588-1.9173 9.375-1.9688z" filter="url(#filter8702)" inkscape:connector-curvature="0" sodipodi:nodetypes="cssssscscccssccssscsscssc"/>
 </g>
 <g transform="translate(-13.654 -334.6)" inkscape:groupmode="layer" inkscape:label="Basic">
  <g>
   <path d="m258.45 437.75c0.62842-1.02-17.937-11.608-43.582-15.402-22.465-3.3236-50.544-3.8723-74.476 7.0565-5.9895 2.7351-10.497 5.3626-14.662 8.0894-11.349 7.4292-17.174 14.724-21.876 20.507-4.9865 6.1326-8.7436 15.347-10.301 19.539-1.8982 5.1092-2.2797 10.032-3.1413 15.304-0.56099 3.4326-0.45338 7.1455-0.24778 11.021 0.46072 8.6849 2.6408 18.151 7.4209 26.835 3.6025 6.5442 8.3071 12.684 12.85 18.257 7.4288 9.1138 19.632 15.008 26.769 18.182 5.6002 2.4909 12.548 5.1903 24.383 6.8732 13.423 1.9087 33.227 1.8669 64.937-2.4193 8.7744-1.1861 18.376-3.6768 29.114-5.5882 0.89312-0.15899 1.4466-0.41106 2.1554-0.57034 0.65896-0.14807 1.2454-0.058 1.2222-0.47704-0.67138-12.142-0.4269-25.745-0.14528-31.854 0.0429-0.9292 0.30083-3.8038 0.31285-5.0194 0.0107-1.0846 0.66567-0.95446 1.331-1.4554l6.564-5.5904-51.387-0.64815-18.004 8.7502 35.727-1.2963v34.271s-14.493 5.2191-33.85 4.8612c-14.241-0.26328-31.367-3.1028-47.919-13.854-25.976-16.873-35.086-40.241-35.236-57.113-0.0754-8.4986-0.33392-15.002 0.44643-17.75 0.68732-2.4205 1.7943-8.2994 4.7608-14.656 4.0229-8.6211 10.83-17.593 23.365-24.97 7.688-4.5241 18.023-8.7202 30.2-9.6342 14.012-1.0516 23.914 0.31567 32.191 3.0941 20.411 6.8515 24.498 12.607 27.448 14.609 0.14526 0.0986 0.8023 0.51895 0.56165 0.81988-0.28838 0.36064-0.32407 0.75627-0.46221 0.97204-1.2985 2.0279-4.9756 7.3228-4.9756 7.3228l7.783-0.72919z" fill="#1b4eed" inkscape:connector-curvature="0" sodipodi:nodetypes="csssssssssssssssssccccccsssssssssssccc"/>
   <path d="m336.19 467.94c-2.8923 0.0649-4.6046 0.27183-4.6046 0.27183 2.4153-0.47719-58.817 5.8726-52.882 57.997 1.6585 14.567 9.6152 23.553 18.587 29.935 18.728 13.322 44.434 13.089 44.434 13.089 9.018 0.36896 32.694-6.1997 46.377-23.446 6.9087-8.7078 12.745-19.157 9.8654-34.8-2.7477-14.929-10.298-24.84-18.991-31.26-14.892-10.998-34.109-11.982-42.786-11.787zm-3.1174 7.0674c11.72 0.026 31.869 4.8285 38.267 35.658 8.9903 43.319-13.891 47.268-19.134 49.57-6.9633 3.0589-38.328 5.8301-49.507-38.549-11.027-43.776 23.363-45.88 21.393-45.691 0 0 3.6532-1.0003 8.9805-0.98845z" fill="#ee2b35" inkscape:connector-curvature="0" sodipodi:nodetypes="ccsscsssccssscc"/>
   <path d="m602.38 470.41c-2.1878-7.1e-4 -7.3214 0.10594-13.442 1.0626-14.467 2.2611-34.467 10.513-40.126 27.701-8.7525 26.582 13.785 37.141 13.785 37.141s7.8943 4.0078 11.154 4.794c9.797 2.3628 20.22 1.2603 20.22 1.2603s-4.1561 11.889 4.1756 20.288c1.9892 2.0052 0.5434 2.0757 0.5434 2.0757s-36.415-0.81234-53.654 15c-17.24 15.812-7.8937 30.37-7.8937 30.37s9.0332 19.029 48.02 19.991c39.16 0.96611 63.379-19.074 65.495-34.2 1.0632-7.6032-0.1391-14.726-4.5474-20.955-4.2876-6.0586-11.655-11.274-18.848-16.359-4.4691-3.1593-7.5776-4.7813-9.5811-6.5979-1.8927-1.7162-2.212-3.9265-2.145-5.5847 0.0936-2.3158 1.5058-5.1558 6.2063-9.8597 8.5752-8.5814 10.749-7.5132 15.93-13.937 1.5533-1.9258 2.6958-4.7355 4.2901-8.9207 0.96044-2.5214 0.80075-5.1312 0.80081-7.5616 1.4e-4 -5.2546-1.4603-10.26-3.8897-14.481-4.5146-7.8432-12.264-12.935-12.413-13.319h13.585l15.387-7.784-51.91-0.12355s-0.41475 2.3e-4 -1.144 0zm-11.154 7.2898c7.9179 0.047 19.814 3.591 26.942 22.067 12.232 31.705-13.385 36.548-13.385 36.548s-29.354 3.9055-34.749-24.291c-5.4966-28.723 7.8899-30.277 13.128-33.113 0 0 3.3145-1.239 8.0653-1.2108zm16.216 93.408s23.371 12.377 25.569 21.449c2.4625 10.164 2.6282 17.568-15.215 25.675-5.2675 2.3933-14.513 2.6721-20.335 2.6935-14.31 0.0527-25.118-4.7064-30.459-7.0921-2.7758-1.2398-18.193-16.198-6.7783-29.579 2.8712-3.3659 6.0528-4.8581 9.0091-6.5732 6.2915-3.6498 12.467-5.3499 24.11-6.2272 3.8725-0.29179 9.0328-0.0461 14.1-0.34595z" fill="#1643ec" inkscape:connector-curvature="0" sodipodi:nodetypes="csscscscscsssssssssssccccccscscccsssssssc"/>
   <path d="m652.76 423.86 18.245-7.638 34.608 0.16252s-9.2163 3.9003-9.9687 9.9132c-0.75235 6.0129 0 124 0 124 0.19264 3.0877-1.394 6.7442 8.2759 7.5568 12.074 1.0146 14.107 1.2188 14.107 1.2188l-8.464 5.5254-45.141-0.32503 4.8903-4.5503s2.6332-1.7876 2.4452-9.2631c-0.18809-7.4755-0.28213-126.52-0.28213-126.52z" fill="#00b817" inkscape:connector-curvature="0" sodipodi:nodetypes="cccscsccccscc"/>
   <path d="m781.31 467.77c-0.86284 3e-3 -4.7861-0.3764-5.7197-0.31436-32.966 2.191-48.182 18.324-53.254 33.063-5.0717 14.74-0.94022 36.254 6.2063 45.814 7.1465 9.5608 22.13 21.496 45.875 21.894 23.745 0.39837 36.447-9.3744 44.273-16.136 0.51869-0.44816 0.9152-1.3838 0.9152-1.3838s-14.972 7.3109-30.202 7.1662c-16.491-0.1567-42.266-13.986-48.621-43.022 6.1954-0.42336 11.383-0.69826 18.19-0.59307l57.887-20.51s-1.4024-6.5128-7.2645-12.924c-3.663-4.0061-9.6284-7.8489-16.359-10.428-4.4859-1.7189-6.1174-1.6534-11.927-2.6263zm-14.786 6.7777c0.7676-0.0136 1.5232 5e-3 2.2594 0.0247 4.5631 0.12297 8.3357 0.9252 11.698 2.7924 2.2518 1.2507 4.0681 3.0934 6.7497 5.1152 5.1845 3.909 5.0623 8.9701 5.0623 8.9701-0.0918 1.1432 1.0886 2.6415-1.8876 4.2256-7.5328 4.0095-23.505 9.2965-36.837 14.036-4.4162 1.5699-9.0609 2.9032-12.327 4.3492 0 0-2.7201-13.441 1.8304-24.538 2.432-5.9307 7.6682-11.063 14.872-13.418 3.7039-1.2109 6.2773-1.5161 8.5801-1.5568z" fill="#ee2b34" inkscape:connector-curvature="0" sodipodi:nodetypes="cssssscscccssccssscsscssc"/>
  </g>
  <path transform="matrix(.91521 0 0 .79076 78.91 404.25)" d="m18.755 155.61s61.241 56.265 68.896 57.796c7.6551 1.531-15.693-3.4448-15.693-3.4448s-30.222-17.591-32.534-19.903c-1.9138-1.9138-16.841-23.348-16.841-26.027s-3.8276-8.8034-3.8276-8.4206z" filter="url(#filter8586)" opacity=".39904" inkscape:connector-curvature="0" sodipodi:nodetypes="cscssc"/>
  <path d="m470.7 467.7c-2.8923 0.0648-4.6046 0.27182-4.6046 0.27182 2.4153-0.47719-58.817 5.8726-52.882 57.997 1.6585 14.567 9.6152 23.553 18.587 29.935 18.728 13.322 44.434 13.089 44.434 13.089 9.018 0.36896 32.694-6.1997 46.377-23.446 6.9087-8.7078 12.745-19.157 9.8654-34.8-2.7477-14.929-10.298-24.84-18.991-31.26-14.892-10.998-34.109-11.982-42.786-11.787zm-3.1174 7.0674c11.72 0.026 31.869 4.8285 38.267 35.658 8.9903 43.319-13.891 47.268-19.134 49.571-6.9633 3.0589-38.328 5.8301-49.507-38.549-11.027-43.776 23.363-45.88 21.393-45.691 0 0 3.6532-1.0003 8.9805-0.98844z" fill="#fcb110" inkscape:connector-curvature="0" sodipodi:nodetypes="ccsscsssccssscc"/>
 </g>
 <g transform="translate(-13.654 -334.6)" inkscape:groupmode="layer" inkscape:label="Secondary">
  <path transform="matrix(.81032 0 0 .62705 123.2 214.98)" d="m119.26 495.39 12.705 2.7664c-0.0118 0.1064 6.7379 1.3638 13.934 2.0492l2.1516 0.20491c5.6164 0.86275 0.57159 7.2746 6.0451 7.2746 0 0 6.0557 2.0721 10.656-5.3279 2.3566-3.791 5.3279-6.1475 5.3279-6.1475l6.9672-4.5082-50.41-0.40983z" fill="url(#linearGradient3653)" filter="url(#filter3716)" opacity=".60526" inkscape:connector-curvature="0" sodipodi:nodetypes="ccsscscccc"/>
  <path transform="matrix(.91521 0 0 .79076 99.784 132.21)" d="m163.11 380.64-12.705 6.1475s-37.705-19.672-62.295-16.393c-24.59 3.2787-50.82 9.0164-66.393 35.246-15.574 26.23-22.131 41.393-16.803 64.754 5.3279 23.361-15.164 0-15.164 0s-5.7377-41.393 27.459-75c33.197-33.607 80.738-30.738 80.738-30.738s35.656 2.8689 45.902 6.1476c10.246 3.2787 20.902 10.656 19.262 9.8361z" fill="#fff" filter="url(#filter8564)" opacity=".289" inkscape:connector-curvature="0" sodipodi:nodetypes="ccssscscsc"/>
  <path transform="matrix(.91521 0 0 .79076 99.784 132.21)" d="m46.721 524.9-11.066 2.0492s26.23 22.951 46.311 25.41c20.082 2.459 36.475-1.6393 36.475-1.6393s-36.066-1.2295-49.59-9.8361c-13.525-8.6066-23.361-17.213-22.131-15.984z" fill="url(#linearGradient7681)" filter="url(#filter7669)" opacity=".115" inkscape:connector-curvature="0"/>
  <path transform="matrix(.91521 0 0 .79076 99.784 132.21)" d="m173.77 510.15-15.164 5.7377 1.6651 28.639-27.258 7.774-5.5543 4.98 47.131-9.8361z" fill="url(#linearGradient7727)" filter="url(#filter7729)" opacity=".16827" inkscape:connector-curvature="0" sodipodi:nodetypes="ccccccc"/>
  <path transform="matrix(.91521 0 0 .79076 99.784 132.21)" d="m197.54 469.99 12.69 9.0065s7.3918-39.334 25.425-45.482c18.033-6.1475 23.361-5.7377 23.361-5.7377s34.09 9.3982 38.934 22.131c14.473 38.036 14.344-3.2787 14.344-3.2787s-24.18-25.82-57.787-22.131c-33.607 3.6885-55.738 31.148-56.967 45.492z" fill="#fff" filter="url(#filter7768)" opacity=".30288" inkscape:connector-curvature="0" sodipodi:nodetypes="ccscscsc"/>
  <path transform="matrix(.91521 0 0 .79076 99.784 132.21)" d="m207.25 508.26s-5.1468-32.439 0.66649-32.962c5.4692-0.49214 7.6507 37.44 10.96 41.384 14.873 17.727 26.197 30.764 51.607 28.305 25.41-2.459 41.712-16.549 42.495-59.583 0.52949-29.104 9.0164-2.5429 9.0164-2.5429-20.264 44.561-24.499 63.588-55.24 65.687-21.92 1.4963-54.081-28.818-59.505-40.289z" filter="url(#filter8110)" opacity=".59615" inkscape:connector-curvature="0" sodipodi:nodetypes="csssscsc"/>
  <path transform="matrix(.91521 0 0 .79076 99.784 132.21)" d="m348.17 467.19 10.246 1.2295s9.8361-31.557 27.869-37.705c18.033-6.1475 23.361-5.7377 23.361-5.7377s34.016 9.4262 38.934 22.131c4.918 12.705 14.344-3.2787 14.344-3.2787s-24.18-25.82-57.787-22.131c-33.607 3.6885-55.738 31.148-56.967 45.492z" fill="#fff" filter="url(#filter7768-1)" opacity=".30288" inkscape:connector-curvature="0"/>
  <path transform="matrix(.91521 0 0 .79076 99.784 132.21)" d="m352.03 503.27s8.7953-20.327 3.5457-20.46 5.6105 24.222 13.259 32.856c19.288 21.773 26.051 32.256 51.461 29.797 21.128-2.0447 29.782-8.3785 34.518-37.287 0.95973-5.8584 4.5486-19.941 4.6106-27.193 0.15307-17.921 10.88 4.3038 10.88 4.3038-18.261 42.32-22.208 60.219-54.365 62.779-23.265 1.8519-41.819-9.1035-63.908-44.794z" fill="#745500" filter="url(#filter8118)" opacity=".78365" inkscape:connector-curvature="0" sodipodi:nodetypes="czsssscsc"/>
  <path transform="matrix(.91521 0 0 .79076 99.784 132.21)" d="m372.11 443.79s-15.649 6.9552-16.229 22.025c-0.5796 15.069 12.172 35.355 12.172 35.355s-11.592-30.719 4.0572-57.38z" filter="url(#filter8010)" opacity=".19159" stroke="#000" stroke-width="1px" inkscape:connector-curvature="0" sodipodi:nodetypes="cscc"/>
  <path transform="matrix(.91521 0 0 .79076 99.784 132.21)" d="m224.03 445.81s-12.983 6.9552-13.562 22.025c-0.5796 15.069 9.5051 35.355 9.5051 35.355s-11.592-30.719 4.0572-57.38z" filter="url(#filter8010-9)" opacity=".27962" stroke="#000" stroke-width="1px" inkscape:connector-curvature="0" sodipodi:nodetypes="cscc"/>
  <path transform="matrix(.91521 0 0 .79076 99.784 132.21)" d="m570.1 441.16c-3.6992 8.6316-17.674-6.5764-17.674-6.5764s-15.208-6.1654-23.018-0.82206-16.03 10.276-16.03 10.276-9.0426 2.0551-9.8647 22.607c-0.82205 20.551 3.9559 30.333 3.9559 30.333s-19.164-29.511-15.465-36.499 10.978-17.032 20.14-23.018c8.2979-5.4207 15.718-9.1416 33.704-9.8647 17.665-0.71015 43.98 0.82206 43.98 0.82206-7.7416-1.1666-15.735 7.0769-19.729 12.742z" fill="#fff" filter="url(#filter8149)" opacity=".36538" inkscape:connector-curvature="0" sodipodi:nodetypes="ccscscssscc"/>
  <path transform="matrix(.91521 0 0 .79076 99.784 132.21)" d="m566.81 501.17s-2.8772 9.8647-7.3985 13.564c-4.5213 3.6992-4.1103 11.92-4.1103 11.92s-6.5764 2.4662-9.8647-1.6441c-3.2882-4.1103-1.6441-6.1654-8.2206-9.8647-6.5764-3.6992 0.41103-4.1103 0.41103-4.1103s6.1654 2.4662 13.153 0.41102c6.9875-2.0551 16.03-10.276 16.03-10.276z" fill="#fff" filter="url(#filter8173)" opacity=".26442" inkscape:connector-curvature="0"/>
  <path transform="matrix(.91521 0 0 .79076 99.784 132.21)" d="m498.58 504.46s7.3985-14.386 12.331-7.3985c4.9323 6.9875 9.4536 18.907 14.797 20.14 5.3434 1.2331 2.4662 2.0551 2.4662 2.0551s-5.7544 0.41103-11.509-2.0551c-5.7544-2.4662-16.441-8.6316-18.085-12.742z" filter="url(#filter8213)" opacity=".22596" inkscape:connector-curvature="0"/>
  <g fill="#fff">
   <path transform="matrix(.91521 0 0 .79076 99.784 132.21)" d="m560.64 449.38s21.373-0.82205 20.551 19.729c-0.82206 20.551-11.509 26.717-11.509 26.717s2.0551-17.263-0.82205-26.306c-2.8772-9.0426-9.4536-20.551-8.2206-20.14z" filter="url(#filter8197)" opacity=".15385" inkscape:connector-curvature="0"/>
   <path transform="matrix(.91521 0 0 .79076 99.784 132.21)" d="m569.68 534.88s-4.1103 4.1103-9.0426 2.8772 29.183 26.306 29.183 26.306-2.4662-13.975 1.6441-10.687c4.1103 3.2882-12.742-13.153-15.619-14.797-2.8772-1.6441-6.1654-3.2882-6.1654-3.6992z" filter="url(#filter8219)" opacity=".45673" inkscape:connector-curvature="0"/>
   <path transform="matrix(.91521 0 0 .79076 99.784 132.21)" d="m535.98 547.62s-36.17 6.9875-41.103 21.784-6.5764 16.03-6.5764 25.484-10.276-11.098-6.9875-19.729c3.2882-8.6316 16.852-18.085 16.852-18.085s18.907-8.2206 27.128-8.6316c8.2206-0.41103 11.509-0.41103 10.687-0.82205z" filter="url(#filter8594)" opacity=".36538" inkscape:connector-curvature="0"/>
   <path transform="matrix(.91521 0 0 .79076 99.784 132.21)" d="m505.98 605.58-5.7544 1.6441s12.647 16.598 48.501 13.975c16.852-1.2331 27.539-12.742 27.539-12.742s-13.975 11.509-36.17 9.4536-33.704-11.509-34.115-12.331z" filter="url(#filter8251)" opacity=".4375" inkscape:connector-curvature="0" sodipodi:nodetypes="ccscsc"/>
  </g>
  <g>
   <path transform="matrix(.91521 0 0 .79076 99.784 132.21)" d="m598.46 570.23s-6.5764 10.687-7.8095 18.496c-1.2331 7.8095 0.82205 19.729-12.331 25.895-13.153 6.1654-33.704 13.564-43.98 12.742-10.276-0.82206-35.348-7.8095-39.87-10.276-4.5213-2.4662-11.92-6.1654-11.92-6.1654s16.852 22.607 57.955 18.907c41.103-3.6992 61.419-31.362 60.01-46.857-0.82206-9.0426-0.41103-12.742-2.0551-12.742z" filter="url(#filter8590)" opacity=".75962" inkscape:connector-curvature="0" sodipodi:nodetypes="csssscssc"/>
   <path transform="matrix(.91521 0 0 .79076 99.784 132.21)" d="m539.68 555.02s9.0426-9.8647 15.619-6.1654 18.085 18.907 18.085 18.907l-18.496-12.742z" filter="url(#filter8275)" opacity=".57212" inkscape:connector-curvature="0"/>
   <path transform="matrix(.91521 0 0 .79076 99.784 132.21)" d="m660.63 359.48s-13.079 0.87192-15.985 7.5566c-2.9064 6.6847-2.4978 166.04-2.4978 166.04s7.5 7.8571 8.5714-3.9286c1.0714-11.786 1e-5 -15.357 1e-5 -15.357l0.35714-138.57s0.35714-7.8572 5.7143-11.071c5.3572-3.2143 4.2857-4.6429 3.8402-4.6727z" filter="url(#filter8295)" opacity=".64423" inkscape:connector-curvature="0" sodipodi:nodetypes="cscsccsc"/>
   <path transform="matrix(.91521 0 0 .79076 99.784 132.21)" d="m620 545.93s8.5714-9.6429 17.143-9.2857c8.5714 0.35714 10 5.7143 17.857 6.0714 7.8571 0.35714 18.929-1.7857 18.929-1.7857l-7.1429 5.3571z" filter="url(#filter8552)" opacity=".49519" inkscape:connector-curvature="0"/>
   <path transform="matrix(.91521 0 0 .79076 99.784 132.21)" d="m625.36 382.01 5.3572-12.5s4.6428-5.3571-5.3572-4.6429c-10 0.71429-18.929 3.5714-18.929 3.5714h18.214z" filter="url(#filter8359)" opacity=".53846" inkscape:connector-curvature="0"/>
   <path transform="matrix(.91521 0 0 .79076 78.91 404.25)" d="m755.67 132.82s5.9641-5.9051 13.441-9.9442c5.0017-2.7018 12.629-3.7336 12.386-4.6967-0.83822-3.3184-0.88504-7.5757 3.644-9.0367 7.8086-2.5189 16.877-5.5416 16.877-5.5416s4.2821 5.2897 4.2821 7.5567v2.267l-32.415 13.71z" filter="url(#filter8544)" opacity=".41346" inkscape:connector-curvature="0" sodipodi:nodetypes="cssscsccc"/>
  </g>
  <path transform="matrix(.91521 0 0 .79076 78.91 404.25)" d="m783.63 84.206 1.0076 11.335c-1.2325-2.2116-0.89428-3.6377-4.534-7.0529l-10.579-4.7859s-5.7934-1.5113-8.8161-1.5113c-10.327 0-25.189 4.2821-27.204 6.2972s-9.5324 17.148-10.54 21.43c-1.0076 4.2821-14.597 20.707-14.597 20.707s-9.3499 20.566-8.1126 5.4698c1.2594-15.365 6.2972-23.678 6.2972-23.678s9.8237-19.144 23.678-25.189 26.952-8.8161 37.531-7.3048c10.579 1.5113 16.373 4.534 15.869 4.2821z" fill="#fff" filter="url(#filter8606)" opacity=".40865" inkscape:connector-curvature="0" sodipodi:nodetypes="ccccssscscssc"/>
  <path transform="matrix(.91521 0 0 .79076 78.91 404.25)" d="m707.3 170.35s20.403 14.358 27.204 20.151c6.801 5.7934 26.448 11.587 34.509 11.587 8.0605 0 30.982-8.5642 32.997-10.076 2.0151-1.5113-8.5642 8.0604-8.5642 8.0604s-15.617 7.0529-30.982 7.0529-38.791-7.5567-46.348-19.395c-7.5567-11.839-8.8161-17.632-8.8161-17.38z" filter="url(#filter8419)" opacity=".375" inkscape:connector-curvature="0"/>
  <g>
   <path transform="matrix(.91521 0 0 .79076 78.91 404.25)" d="m727.51 102.8c-14.181 18.216-4.7373 3.6609 2.7065-8.1195 0 0 7.5785-9.2833 17.322-9.2021 6.1492 0.05124 13.835 0.65329 19.547 2.6717 4.7829 1.69 8.0612 4.8179 9.0634 5.1671 4.1227 1.4364-12.642-2.9671-12.642-2.9671s-13.262-4.8717-24.9 1.6239c-8.9992 5.0228-47.905 63.603-11.097 10.826z" filter="url(#filter8724)" opacity=".23077" stroke="#000" stroke-width="1px" inkscape:connector-curvature="0" sodipodi:nodetypes="ccssscssc"/>
   <path transform="matrix(.91521 0 0 .79076 99.784 132.21)" d="m445.57 517.18c-1.1443 4.9585-3.9236 12.601-11.416 18.612-5.6018 4.4948-16.137 7.6074-16.137 7.6074" fill="none" filter="url(#filter7170)" opacity=".57944" stroke="#fff" stroke-width="3" inkscape:connector-curvature="0" sodipodi:nodetypes="csc"/>
   <path transform="matrix(.91406 -.039583 .045813 .78976 75.818 144.04)" d="m299.33 517.18c-1.1443 4.9585-3.9236 12.601-11.416 18.612-5.6018 4.4948-16.137 7.6074-16.137 7.6074" fill="none" filter="url(#filter7170)" opacity=".43925" stroke="#fff" stroke-width="3" inkscape:connector-curvature="0" sodipodi:nodetypes="csc"/>
  </g>
  <g transform="matrix(3.7449 0 0 4.2416 -66.163 -2092.1)" fill="#4d4d4d">
   <path d="m269.99 601.98c-1e-5 0.92112 0.29709 1.6764 0.89131 2.2666 0.59419 0.59086 1.3894 1.0684 2.3855 1.4344 0.99615 0.36654 2.1496 0.66722 3.4604 0.90299 1.3107 0.23577 2.6652 0.44863 4.0633 0.63763 1.9224 0.28349 3.74 0.59657 5.4527 0.9383 1.7127 0.34267 3.2943 0.85621 4.7449 1.5407 1.4505 0.6844 2.6214 1.6114 3.5128 2.7802 0.89126 1.1687 1.3369 2.6858 1.337 4.5511-4e-5 1.6999-0.48939 3.2051-1.468 4.5155-0.97873 1.3105-2.3594 2.4083-4.142 3.2937-1.7826 0.8858-3.9148 1.5585-6.3964 2.0188-2.4817 0.46104-5.208 0.69108-8.179 0.69108-1.8176 0-3.4691-0.0668-4.9546-0.19473-1.4855-0.12981-2.7963-0.29495-3.9322-0.49635-1.136-0.20045-2.1059-0.40758-2.9098-0.61949-0.80394-0.21286-1.468-0.41331-1.9923-0.60231v-4.6041c2.0972 0.56699 4.1769 1.0153 6.2391 1.3459 2.0622 0.33027 4.3342 0.49635 6.8159 0.49635 1.9574 0 3.7225-0.11836 5.2954-0.35413 1.5728-0.23577 2.9273-0.58417 4.0633-1.0448 1.136-0.46008 2.0098-1.0388 2.6215-1.7354 0.61164-0.69681 0.91748-1.5051 0.91751-2.4259-3e-5 -0.94498-0.27965-1.7236-0.83887-2.3375-0.55928-0.61377-1.3108-1.1215-2.2545-1.5229-0.94377-0.40186-2.0361-0.73213-3.2768-0.99176-1.2409-0.25963-2.5429-0.49636-3.906-0.70826-1.7826-0.25964-3.5914-0.56699-5.4265-0.92113-1.8351-0.35412-3.5041-0.85048-5.007-1.4875-1.503-0.63763-2.7176-1.5052-3.6439-2.6031s-1.3894-2.5087-1.3894-4.2323c-3e-5 -1.7708 0.47184-3.3055 1.4156-4.6042 0.94373-1.2985 2.2195-2.3728 3.8274-3.2228 1.6078-0.85049 3.4778-1.4875 5.61-1.9126 2.1321-0.42476 4.3866-0.63763 6.7635-0.63763 2.7613 0 5.3216 0.17754 7.681 0.53167 2.3593 0.35414 4.5002 0.80276 6.4226 1.3458v4.675c-2.0972-0.54313-4.2206-0.98565-6.3702-1.3281-2.1496-0.34268-4.3604-0.52595-6.6324-0.54886-1.9224 0-3.5652 0.12982-4.9284 0.38945-1.3632 0.25963-2.4817 0.61949-3.3555 1.0802-0.87384 0.46008-1.5117 1.0036-1.9137 1.6292-0.40197 0.62617-0.60294 1.3163-0.60293 2.0719z" stroke-width="1.4325" inkscape:connector-curvature="0"/>
   <g stroke-width=".867">
    <path d="m314.23 603.76c1.3154 1e-5 2.5736 0.11499 3.7746 0.3449 1.201 0.22997 2.2304 0.55109 3.0883 0.96337v3.0685c-1.201-0.38057-2.3067-0.66601-3.3171-0.85633-1.0104-0.19027-2.0398-0.28542-3.0883-0.28544-1.1057 2e-5 -2.2019 0.15067-3.2885 0.45195-1.0866 0.30132-2.0589 0.79688-2.9167 1.4867-0.85788 0.68984-1.5489 1.6017-2.0732 2.7355-0.52425 1.1339-0.78638 2.5412-0.78637 4.2222-1e-5 1.2211 0.1954 2.347 0.58621 3.3777 0.3908 1.0308 0.97223 1.9228 1.7443 2.676 0.77206 0.75326 1.7395 1.34 2.9024 1.7602 1.1629 0.42023 2.5068 0.63035 4.032 0.63035 1.1057 0 2.2209-0.0991 3.3456-0.29734 1.1247-0.19822 2.2209-0.4797 3.2885-0.84444v3.0685c-0.3241 0.15858-0.74826 0.31716-1.2725 0.47574-0.52427 0.15858-1.101 0.29733-1.73 0.41627-0.62912 0.11893-1.2963 0.21408-2.0017 0.28544-0.70537 0.0713-1.4107 0.10704-2.116 0.10704-1.8301 0-3.5601-0.22994-5.19-0.68982-1.63-0.45988-3.0549-1.1656-4.275-2.117-1.2201-0.95147-2.1828-2.1567-2.8881-3.6156-0.70535-1.4589-1.058-3.1874-1.058-5.1855-1e-5 -1.4906 0.18586-2.8306 0.55761-4.02 0.37173-1.1893 0.88168-2.236 1.5298-3.1399 0.64816-0.90388 1.4059-1.673 2.2733-2.3073 0.86738-0.6343 1.792-1.1536 2.7738-1.558 0.98176-0.40436 1.9969-0.69773 3.0454-0.88012 1.0485-0.18234 2.0684-0.27353 3.0597-0.27354z" inkscape:connector-curvature="0"/>
    <path d="m333.01 607.45h0.0857c0.49564-0.52329 1.0485-1.0109 1.6585-1.4629 0.61002-0.45193 1.2868-0.84045 2.0303-1.1656 0.74347-0.32506 1.5441-0.58275 2.402-0.77307 0.85784-0.19027 1.7824-0.28543 2.7738-0.28544 1.0294 1e-5 2.0588 0.11499 3.0883 0.3449 1.0294 0.22997 1.9826 0.63831 2.8595 1.225 0.8769 0.58677 1.5918 1.4034 2.1446 2.4501 0.55283 1.0466 0.82924 2.3946 0.82927 4.0438v15.128h-4.4323v-14.534c-2e-5 -1.8236-0.41465-3.1954-1.2439-4.1151-0.82927-0.91974-2.1876-1.3796-4.0748-1.3796-1.5632 2e-5 -3.0502 0.35285-4.4609 1.0585-1.4107 0.70569-2.6308 1.677-3.6602 2.9139v16.056h-4.4323v-34.443h4.4323z" inkscape:connector-curvature="0"/>
    <path d="m379.11 615.68c-3e-5 -1.3955-0.20496-2.6364-0.61481-3.7226-0.40989-1.0863-0.98179-2.006-1.7157-2.7593-0.73397-0.75324-1.6061-1.3241-2.6165-1.7127-1.0104-0.3885-2.1161-0.58276-3.3171-0.58278-1.201 2e-5 -2.3067 0.19428-3.3171 0.58278-1.0104 0.38854-1.8825 0.95942-2.6165 1.7127-0.73397 0.75326-1.3059 1.673-1.7157 2.7593-0.40987 1.0863-0.61481 2.3272-0.6148 3.7226-1e-5 1.3796 0.20493 2.6126 0.6148 3.6989 0.40986 1.0863 0.98654 2.0021 1.73 2.7474 0.74347 0.74532 1.6204 1.3122 2.6308 1.7008 1.0104 0.38853 2.116 0.58278 3.317 0.58278 1.201 0 2.3019-0.19425 3.3028-0.58278 1.0008-0.38851 1.8682-0.95543 2.6022-1.7008 0.73393-0.74532 1.3058-1.6611 1.7157-2.7474 0.40985-1.0863 0.61478-2.3192 0.61481-3.6989zm4.6324 0c-3e-5 1.7761-0.30505 3.3936-0.91505 4.8525-0.61006 1.4589-1.4727 2.7077-2.5879 3.7464-1.1152 1.0387-2.464 1.8435-4.0462 2.4144-1.5823 0.57089-3.3552 0.85633-5.3187 0.85633-2.0207 0-3.827-0.28544-5.4188-0.85633-1.5918-0.57088-2.9453-1.3757-4.0605-2.4144-1.1152-1.0387-1.9683-2.2875-2.5593-3.7464-0.59097-1.4589-0.88646-3.0764-0.88645-4.8525-1e-5 -1.7919 0.30501-3.4174 0.91505-4.8763 0.61003-1.4589 1.4726-2.7117 2.5879-3.7583 1.1152-1.0466 2.4687-1.8554 4.0605-2.4263 1.5918-0.57086 3.3695-0.85631 5.333-0.85632 2.0017 1e-5 3.8032 0.28546 5.4045 0.85632 1.6013 0.57091 2.9548 1.3797 4.0605 2.4263 1.1057 1.0466 1.954 2.2994 2.545 3.7583 0.59094 1.459 0.88643 3.0844 0.88646 4.8763z" inkscape:connector-curvature="0"/>
    <path d="m391.03 626.95v-34.443h4.4323v34.443z" inkscape:connector-curvature="0"/>
    <path d="m420.26 624.46h-0.11439c-0.36223 0.38059-0.81975 0.75722-1.3726 1.1299-0.55285 0.37265-1.1915 0.70567-1.9159 0.99904-0.72442 0.29337-1.5156 0.52728-2.3734 0.70171-0.85787 0.17444-1.7729 0.26166-2.7452 0.26166-1.3154 0-2.5212-0.16254-3.6173-0.48763-1.0962-0.32509-2.0398-0.80082-2.8309-1.4272-0.79114-0.62638-1.4059-1.3915-1.8444-2.2954-0.43847-0.9039-0.65769-1.9267-0.65769-3.0685 0-1.1259 0.24305-2.1329 0.72918-3.0209 0.48611-0.88803 1.1676-1.6413 2.0446-2.2598 0.87692-0.61845 1.9302-1.0942 3.1598-1.4272 1.2296-0.333 2.5879-0.49951 4.0748-0.49953 1.4107 0.0159 2.7165 0.11895 3.9176 0.30924 1.201 0.1903 2.2686 0.42817 3.2027 0.7136h0.11438v-1.5699c-2e-5 -0.61844-0.0477-1.1655-0.14298-1.6413-0.0953-0.47572-0.25737-0.89595-0.48612-1.2607-0.49567-0.76117-1.2868-1.3915-2.3734-1.8911-1.0866-0.49951-2.5545-0.74927-4.4037-0.74928-1.3726 1e-5 -2.6642 0.10706-3.8747 0.32111-1.2105 0.21411-2.4163 0.51144-3.6173 0.89202v-3.0923c0.45751-0.19027 0.99606-0.36868 1.6156-0.5352 0.61956-0.16649 1.2725-0.30921 1.9588-0.42817 0.68628-0.11891 1.4107-0.21009 2.1733-0.27355 0.76253-0.0634 1.5251-0.0951 2.2876-0.0951 2.7451 1e-5 4.9899 0.40439 6.7342 1.2131 1.7443 0.80877 2.9977 1.8792 3.7603 3.2112 0.28592 0.50746 0.49086 1.0665 0.61479 1.677 0.1239 0.61055 0.18586 1.2805 0.18588 2.01v15.081h-3.7174zm-0.22877-7.4215c-0.81975-0.19029-1.792-0.37265-2.9167-0.5471-1.1248-0.17442-2.3639-0.26957-3.7174-0.28544-1.8873 1e-5 -3.3647 0.33303-4.4323 0.99905-1.0676 0.66604-1.6014 1.6889-1.6013 3.0685-1e-5 0.69775 0.13343 1.3083 0.40034 1.8316 0.26687 0.52333 0.63385 0.95545 1.1009 1.2964 0.46705 0.34095 1.0199 0.59467 1.6585 0.76118 0.63862 0.16651 1.3201 0.24976 2.0446 0.24976 0.95316 0 1.8396-0.11496 2.6594-0.34491 0.81971-0.22993 1.5489-0.50348 2.1875-0.82064 0.63861-0.31716 1.1819-0.63432 1.6299-0.95148 0.44797-0.31715 0.77681-0.56295 0.98653-0.73739z" inkscape:connector-curvature="0"/>
    <path d="m447.97 607.35h-0.34314c-1.0485 1e-5 -2.078 0.0793-3.0883 0.23786-1.0104 0.1586-1.9588 0.40043-2.8452 0.7255-0.88647 0.32511-1.6871 0.72552-2.402 1.2012-0.7149 0.47575-1.3106 1.0387-1.7872 1.6889v15.747h-4.4323v-22.598h3.4314l0.85786 3.5918h0.0858c0.43846-0.58673 0.977-1.1338 1.6156-1.6413 0.63861-0.50743 1.3583-0.95146 2.1589-1.3321 0.80066-0.38057 1.6776-0.67791 2.6308-0.89201 0.95316-0.21406 1.954-0.32111 3.0025-0.32112 0.19062 1e-5 0.38601 4e-3 0.5862 0.0119 0.20015 8e-3 0.37649 0.0199 0.52901 0.0357z" inkscape:connector-curvature="0"/>
   </g>
  </g>
 </g>
</svg>
